<svg width="333" height="431" viewBox="0 0 333 431" fill="none" xmlns="http://www.w3.org/2000/svg">
<path d="M182.91 140.23L181.966 162.914C187.3 169.451 195.909 172.421 206.509 173.225C218.271 170.864 227.805 166.811 234.828 160.852L232.94 126.825L182.91 140.23Z" fill="#FFA382"/>
<path d="M182.91 140.23V146.416L201.789 140.23H182.91V140.23Z" fill="#FE7649"/>
<path d="M173.471 48.4617V56.0403C173.469 57.119 172.915 58.1061 172.036 58.5972C171.157 59.0883 170.1 59.0008 169.298 58.3706C164.484 54.6483 159.311 44.2033 157.187 33.0571C154.516 18.6217 165.683 5.43389 178.993 7.5064C183.139 8.18037 187.143 9.64998 190.821 11.8473C191.449 12.2201 192.189 12.2978 192.871 12.0625C193.553 11.8272 194.118 11.2991 194.436 10.5997C201.648 -5.46485 212.569 -0.288721 225.096 14.0333C225.844 14.8788 226.991 15.1367 227.984 14.6829C243.494 7.61982 248.987 12.8681 247.524 26.8086C247.443 27.5817 247.653 28.3578 248.108 28.9573C248.562 29.5567 249.221 29.9277 249.931 29.9844C265.384 31.2217 261.665 45.0282 252.14 62.6394C251.46 63.8742 250.052 64.3751 248.836 63.8148C243.579 61.5361 239.793 65.2893 236.48 70.9294C236.028 71.6926 235.93 72.6431 236.216 73.4968C244.409 98.0267 238.651 129.393 235.272 133.528C231.496 138.126 213.9 149.087 180.947 140.848C180.666 140.789 180.397 140.674 180.154 140.508C173.169 135.93 170.997 123.34 171.554 106.203" fill="#001047"/>
<path d="M234.828 69.0837C235.859 66.0953 237.929 63.6721 240.586 62.3403C243.43 60.8626 246.807 61.3908 249.157 63.6808C251.76 66.0807 253.395 69.5029 253.707 73.2081C254.264 78.6523 251.092 82.189 246.392 84.9317C245.571 85.4184 244.675 85.7331 243.748 85.8597C241.198 86.3315 238.592 85.4644 236.716 83.5191" fill="#FFA385"/>
<path d="M216.893 58.6696C222.166 58.774 226.708 62.7597 227.937 68.3619C228.716 72.3279 229.128 76.3697 229.164 80.4258C229.598 94.0466 229.325 106.863 226.578 116.834C224.851 123.081 219.06 126.871 213.202 125.588C203.913 123.639 195.182 123.773 187.243 126.867C182.066 128.796 176.359 126.52 173.537 121.402C173.414 121.185 173.291 120.969 173.178 120.742C172.122 118.764 171.589 116.504 171.639 114.215L172.489 60.175C172.499 59.5305 172.743 58.9169 173.169 58.4699C173.594 58.0229 174.164 57.7794 174.754 57.7932L216.893 58.6696Z" fill="#FF9C78"/>
<path d="M178.19 64.9593C181.296 62.2991 184.194 61.6392 186.686 64.9593" stroke="#A9552B" stroke-width="0.5"/>
<path d="M205.565 65.9904C208.803 64.3304 211.805 63.6189 214.061 65.9904" stroke="#A9552B" stroke-width="0.5"/>
<path d="M183.854 92.799C184.897 92.799 185.742 91.1833 185.742 89.1902C185.742 87.1971 184.897 85.5813 183.854 85.5813C182.812 85.5813 181.966 87.1971 181.966 89.1902C181.966 91.1833 182.812 92.799 183.854 92.799Z" fill="#000F47"/>
<path d="M209.341 92.799C210.384 92.799 211.229 91.1833 211.229 89.1902C211.229 87.1971 210.384 85.5813 209.341 85.5813C208.298 85.5813 207.453 87.1971 207.453 89.1902C207.453 91.1833 208.298 92.799 209.341 92.799Z" fill="#000F47"/>
<path d="M198.014 92.799C194.563 96.799 192.265 101.819 191.406 107.234C194.058 109.523 197.325 109.369 200.846 108.266" stroke="#A9552B" stroke-width="0.5"/>
<path d="M202.733 114.452C205.565 114.452 213.117 113.421 215.005 109.297" stroke="#000F47" stroke-width="0.5" stroke-linecap="round" stroke-linejoin="round"/>
<path fill-rule="evenodd" clip-rule="evenodd" d="M181.258 97.439C188.427 97.439 194.238 91.0915 194.238 83.2614C194.238 75.4313 188.427 69.0837 181.258 69.0837C174.09 69.0837 168.279 75.4313 168.279 83.2614C168.279 91.0915 174.09 97.439 181.258 97.439Z" stroke="#000F47" stroke-width="0.5" stroke-linecap="round" stroke-linejoin="round"/>
<path fill-rule="evenodd" clip-rule="evenodd" d="M211.408 97.439C218.577 97.439 224.388 91.0915 224.388 83.2614C224.388 75.4313 218.577 69.0837 211.408 69.0837C204.24 69.0837 198.429 75.4313 198.429 83.2614C198.429 91.0915 204.24 97.439 211.408 97.439Z" stroke="#000F47" stroke-width="0.5" stroke-linecap="round" stroke-linejoin="round"/>
<path d="M194.71 83.0036H198.486" stroke="#000F47" stroke-width="0.5" stroke-linecap="round" stroke-linejoin="round"/>
<path d="M223.973 83.0036H229.278" stroke="#000F47" stroke-width="0.5" stroke-linejoin="round"/>
<path d="M242.257 64.5263C245.759 63.2889 248.213 64.5263 249.459 68.5682" stroke="#A9552B" stroke-width="0.5"/>
<path d="M332.245 281.965C332.415 289.657 318.085 295.946 311.053 295.555C306.635 295.319 302.261 294.495 298.026 293.101C294.093 291.842 289.844 292.839 286.732 295.752C283.62 298.665 282.066 303.098 282.602 307.536L294.921 412.945C295.36 416.709 294.305 420.499 292.021 423.358C289.738 426.217 286.444 427.872 282.97 427.907L118.249 428.793C114.845 428.828 111.584 427.3 109.26 424.584C106.937 421.867 105.763 418.21 106.025 414.502L116.833 256.919C117.116 252.854 115.671 248.873 112.916 246.124L89.024 222.264C85.9668 219.225 84.5427 214.69 85.2481 210.241C87.9667 193.496 93.6966 178.009 109.196 166.605C110.703 165.494 112.419 164.768 114.218 164.481C135.807 160.996 156.885 158.14 177.199 156.232L178.634 156.098C197.872 174.875 218.601 170.534 240.124 153.644H241.389C256.862 153.977 272.293 155.51 287.567 158.233C289.285 158.551 290.919 159.276 292.353 160.357C305.096 169.874 323.173 185.402 329.979 206.199C330.412 207.525 330.644 208.917 330.668 210.324L332.245 281.965Z" fill="#76E699"/>
<path d="M241.436 152.603V153.634L235.772 389.756L173.471 386.663L177.247 156.212V154.665C177.719 155.15 178.191 155.624 178.653 156.078C197.891 174.854 218.62 170.513 240.143 153.624L241.436 152.603Z" fill="#F6FCFF"/>
<path d="M177.246 154.665C191.057 168.276 209.266 174.256 242.38 154.665" stroke="#1D3332" stroke-width="2.5"/>
<path d="M206.509 199.002C208.595 199.002 210.285 197.156 210.285 194.878C210.285 192.6 208.595 190.754 206.509 190.754C204.424 190.754 202.733 192.6 202.733 194.878C202.733 197.156 204.424 199.002 206.509 199.002Z" fill="#1D3332"/>
<path d="M283.933 313.836L285.405 329.952L258.352 296.637L283.933 313.836V313.836Z" fill="#428055"/>
<path d="M206.509 214.469C208.595 214.469 210.285 212.622 210.285 210.344C210.285 208.067 208.595 206.22 206.509 206.22C204.424 206.22 202.733 208.067 202.733 210.344C202.733 212.622 204.424 214.469 206.509 214.469Z" fill="#1D3332"/>
<path d="M332.056 272.211C291.938 259.693 235.347 239.731 226.332 241.277C220.046 231.028 212.588 227.935 204.621 227.873C201.44 232.173 203.404 234.967 207.453 237.153C198.155 239.7 187.101 262.044 186.441 264.838C184.855 271.025 185.61 277.211 188.574 283.553C191.142 276.582 195.182 271.602 201.789 270.148C208.199 276.923 215.618 277.572 223.501 275.304L227.276 269.117C260.645 300.968 295.515 325.601 332.056 342.325" fill="#FFA483"/>
<path d="M216.893 237.153C200.76 237.617 192.057 247.547 187.63 262.931" stroke="#000111" stroke-width="0.5"/>
<path d="M201.789 271.179C199.902 263.611 200.081 257.177 205.565 253.651" stroke="#000111" stroke-width="0.5"/>
<path opacity="0.3" d="M172.527 428.938H188.574L176.303 156.727L172.527 428.938V428.938Z" fill="#1F2E3D"/>
<path d="M208.869 273.757C206.415 268.138 206.651 262.931 210.757 258.291" stroke="#000111" stroke-width="0.5"/>
<path d="M225.86 271.695C225.86 271.695 222.085 269.633 220.197 269.633C218.822 269.235 217.537 268.533 216.421 267.571" stroke="#000111" stroke-width="0.5"/>
<path d="M216.421 271.695L220.197 269.633" stroke="#000111" stroke-width="0.5"/>
<path d="M314.3 266.323L261.92 249.506" stroke="#000111" stroke-width="0.5"/>
<path opacity="0.1" d="M88.5142 159.821H187.63L213.117 227.873L114.001 233.029" fill="#022AB7"/>
<path opacity="0.1" d="M10.1655 194.878H156.479L196.126 299.019L42.2602 303.144" fill="#022AB7"/>
<path d="M248.044 311.392V324.797H186.686V311.392" fill="#8492AC"/>
<path d="M186.686 311.392V324.797H26.2129V311.392" fill="#E1E5ED"/>
<path d="M0.725952 207.251L148.928 208.282L186.686 311.392H34.7085" fill="#F4F3F2"/>
<path d="M59.4592 207.561L19.6052 264.993L0.725952 207.251" fill="#BFCAD4"/>
<path d="M28.8937 328.375C28.535 328.282 28.1952 328.168 27.8648 328.055C23.2315 326.289 20.4235 321.15 21.2004 315.857L21.4931 272.21L31.3197 292.214C31.464 292.904 31.8599 293.5 32.4158 293.864C32.9718 294.228 33.6396 294.328 34.2648 294.142C48.9812 289.739 61.2243 289.894 68.6911 299.019C68.0775 301.452 66.4728 302.803 63.9713 303.143C66.5011 304.68 67.8698 307.268 68.6911 310.361C66.907 313.166 64.2356 313.836 61.1394 313.455C63.8957 315.032 66.284 316.971 66.8031 320.672C66.4161 322.404 64.3583 323.157 62.0833 323.766H124.102C124.757 323.767 125.362 324.151 125.687 324.773C126.013 325.394 126.009 326.158 125.678 326.776C116.824 342.645 100.276 350.492 79.726 354.265C78.0454 354.58 76.328 354.58 74.6475 354.265C58.8739 351.224 44.7334 344.934 34.0572 331.767C32.6925 330.088 30.891 328.905 28.8937 328.375Z" fill="#FFA583"/>
<path d="M48.8679 312.423C48.8679 312.423 59.1476 311.31 62.4987 314.486" stroke="#000111" stroke-width="0.5"/>
<path d="M50.7558 301.081C50.7558 301.081 59.2515 300.05 63.9713 303.143" stroke="#000111" stroke-width="0.5"/>
<path d="M20.5491 320.672C25.6087 328.22 32.4713 330.457 41.3162 326.859" stroke="#000111" stroke-width="0.5"/>
<path d="M68.861 323.765H125.678C126.14 323.783 126.554 324.079 126.753 324.535C126.951 324.99 126.901 325.529 126.622 325.931L121.562 333.241C121.337 333.567 120.991 333.767 120.618 333.788C102.73 334.056 85.4369 330.694 68.5873 326.436C67.9679 326.289 67.5507 325.654 67.6213 324.966C67.6918 324.278 68.2272 323.759 68.861 323.765V323.765Z" fill="#E8957C"/>
<path d="M179.606 321.703C180.91 321.703 181.966 320.549 181.966 319.126C181.966 317.702 180.91 316.548 179.606 316.548C178.303 316.548 177.246 317.702 177.246 319.126C177.246 320.549 178.303 321.703 179.606 321.703Z" fill="#022AB7"/>
<rect x="199.902" y="316.548" width="9.4396" height="5.1555" rx="1.01" fill="#022AB7"/>
<rect x="215.949" y="316.548" width="9.4396" height="5.1555" rx="1.01" fill="#022AB7"/>
<path d="M172.527 387.694L173.499 427.907L233.799 431L236.716 388.725" fill="#1F2E3D"/>
</svg>
