<svg width="35" height="44" viewBox="0 0 35 44" fill="none" xmlns="http://www.w3.org/2000/svg">
<path fill-rule="evenodd" clip-rule="evenodd" d="M2.45752 18.5459C9.13465 12.0609 15.3701 13.9859 20.9893 21.1047C23.6994 24.5321 30.532 35.8383 24.1384 38.7198C20.6131 40.3103 15.869 37.4199 14.225 34.1393C12.3982 30.4918 12.799 25.7733 13.8105 21.9322C16.6188 11.2921 23.7403 6.65577 33.283 4.89513C35.0525 4.56648 34.7117 1.91966 33.283 1.39441C15.6127 -5.1082 -1.81485 29.5235 13.6715 41.2786C18.8763 45.2283 28.8361 45.2841 30.7392 37.3964C32.6096 29.635 26.7449 20.4181 21.6955 15.5675C15.3892 9.50506 5.04222 7.23678 0.636243 17.0347C0.0664112 18.2994 1.44873 19.5231 2.45752 18.5459" fill="#E56464"/>
</svg>
