<svg width="33" height="39" viewBox="0 0 33 39" fill="none" xmlns="http://www.w3.org/2000/svg">
<path fill-rule="evenodd" clip-rule="evenodd" d="M17.7408 6.82412L25.9528 1.35414C26.9014 0.789132 28.0113 1.70494 27.8282 2.90324L25.7205 13.4086C25.6467 13.8836 25.7861 14.371 26.0923 14.7093L32.1966 21.4677C32.9648 22.3152 32.5411 23.796 31.4804 23.9698L23.0442 25.3637C22.6232 25.432 22.2569 25.7331 22.071 26.1677L18.0825 36.6079C17.6041 38.5513 16.4532 38.2874 15.9775 37.1946L12.205 26.1677C12.0164 25.7331 11.6528 25.432 11.2318 25.3637L1.28662 24.2958C0.22594 24.1188 0.307952 23.1037 1.07339 22.2562L8.18375 14.7093C8.4872 14.371 8.62661 13.8836 8.5528 13.4086L6.10067 2.64247C5.92025 1.44416 7.03013 0.531466 7.97599 1.09337L16.5352 6.82412C16.9125 7.04764 17.3635 7.04764 17.7408 6.82412" fill="#FFD100"/>
</svg>
