<svg width="35" height="36" viewBox="0 0 35 36" fill="none" xmlns="http://www.w3.org/2000/svg">
<path fill-rule="evenodd" clip-rule="evenodd" d="M18.8413 5.72122L27.5364 0.555123C28.5408 0.0215081 29.716 0.886433 29.522 2.01817L27.2904 11.9399C27.2122 12.3885 27.3598 12.8488 27.684 13.1684L34.1475 19.5512C34.9608 20.3516 34.5122 21.7502 33.3891 21.9144L24.4566 23.2308C24.0109 23.2953 23.623 23.5797 23.4262 23.9902L19.2031 33.8503C18.6966 35.6857 17.478 35.4365 16.9743 34.4045L12.9799 23.9902C12.7802 23.5797 12.3952 23.2953 11.9495 23.2308L1.41922 22.2222C0.296152 22.0551 0.382987 21.0964 1.19345 20.2959L8.72207 13.1684C9.04336 12.8488 9.19098 12.3885 9.11283 11.9399L6.51646 1.77188C6.32542 0.640149 7.50059 -0.221844 8.50209 0.308839L17.5648 5.72122C17.9642 5.93232 18.4418 5.93232 18.8413 5.72122" fill="#FFD100"/>
</svg>
