<svg width="48" height="53" viewBox="0 0 48 53" fill="none" xmlns="http://www.w3.org/2000/svg">
<path fill-rule="evenodd" clip-rule="evenodd" d="M3.79136 33.1706C3.60188 25.0354 16.3689 25.3313 20.4277 29.1513C23.259 31.8117 24.1625 36.5406 24.0005 40.4693C23.822 44.7966 22.1523 48.6619 20.0542 42.7734C16.3963 32.5153 17.9946 17.5706 30.6517 18.0114C34.7188 18.1534 38.753 20.2551 41.0817 23.9936C42.9354 26.974 45.7475 38.4581 39.2583 34.1369C30.1437 28.0763 39.8103 7.42119 46.1951 3.23885C47.4309 2.42653 46.6153 0.327811 45.2257 0.705279C29.2127 5.05069 25.0083 45.0019 45.8079 39.204C46.5164 39.0047 47.3046 38.2588 47.4254 37.4224C48.8617 27.3878 45.4921 17.3803 36.1496 13.962C28.2818 11.0841 19.0491 14.276 15.2539 22.689C12.9691 27.7592 13.0872 33.6869 14.1554 39.0923C14.9683 43.1991 16.9758 52.0168 22.0232 52.2101C32.4148 52.6056 28.2241 30.5313 23.7808 25.9564C19.4885 21.5325 12.2084 21.004 6.8561 23.0907C2.78077 24.6821 -1.30829 28.9852 1.44063 33.8681C2.08049 35.0036 3.82432 34.5868 3.79136 33.1706" fill="#F2699F"/>
</svg>
