<svg width="33" height="40" viewBox="0 0 33 40" fill="none" xmlns="http://www.w3.org/2000/svg">
<path fill-rule="evenodd" clip-rule="evenodd" d="M20.4662 8.82397L29.5974 5.27502C30.6422 4.92832 31.5789 6.09449 31.1881 7.24806L27.2169 17.211C27.059 17.668 27.1116 18.1849 27.3555 18.5883L32.2135 26.7168C32.8231 27.7412 32.1387 29.1154 31.0551 29.046L22.4282 28.4882C21.9959 28.4598 21.5802 28.671 21.3142 29.0618L15.4946 38.5267C14.6715 40.3548 13.5741 39.8252 13.297 38.6307L11.5178 26.7893C11.407 26.3134 11.0994 25.932 10.692 25.765L1.00371 22.4115C-0.0161033 21.9923 0.244394 21.0026 1.1589 20.3344L9.56686 14.4657C9.92989 14.201 10.1544 13.7471 10.1682 13.2554L9.65 1.98452C9.68325 0.74586 10.9497 0.0934337 11.7894 0.875084L19.269 8.54661C19.6043 8.85549 20.0505 8.9595 20.4662 8.82397" fill="#76E699"/>
</svg>
